<?xml version="1.0" standalone="no"?>
<!DOCTYPE svg PUBLIC "-//W3C//DTD SVG 20010904//EN"
 "http://www.w3.org/TR/2001/REC-SVG-20010904/DTD/svg10.dtd">
<svg version="1.0" xmlns="http://www.w3.org/2000/svg"
 width="626.000000pt" height="626.000000pt" viewBox="0 0 626.000000 626.000000"
 preserveAspectRatio="xMidYMid meet">
<metadata>
Created by potrace 1.11, written by Peter Selinger 2001-2013
</metadata>
<g transform="translate(0.000000,626.000000) scale(0.100000,-0.100000)"
fill="#000000" stroke="none">
<path d="M3036 5930 c-62 -19 -106 -85 -106 -159 0 -22 -7 -56 -17 -75 -15
-33 -15 -38 1 -81 10 -25 28 -53 41 -61 13 -8 26 -27 30 -42 4 -15 17 -41 31
-59 13 -17 24 -39 24 -47 0 -18 16 -22 22 -6 2 7 15 6 36 -2 25 -10 39 -10 64
0 21 8 34 9 36 2 6 -16 22 -12 22 6 0 8 11 30 24 47 13 18 27 42 30 54 4 13
20 36 36 51 39 39 57 103 41 139 -7 15 -14 54 -15 86 -4 104 -74 158 -201 156
-38 0 -83 -5 -99 -9z m232 -219 c5 -82 18 -109 24 -48 4 43 32 44 36 0 4 -38
-21 -89 -47 -98 -12 -3 -21 -19 -25 -40 -8 -41 -62 -101 -99 -110 -15 -4 -39
-4 -54 0 -37 9 -91 69 -99 110 -4 21 -13 37 -25 40 -26 9 -51 60 -47 98 4 47
32 47 45 0 10 -37 11 -35 12 32 l1 70 79 1 c64 1 86 6 122 26 60 34 71 22 77
-81z"/>
<path d="M4225 5491 c-71 -44 -105 -101 -105 -175 0 -57 16 -99 62 -168 22
-31 42 -73 45 -93 l6 -35 78 0 78 0 6 34 c4 18 27 64 51 102 55 85 68 123 62
185 -6 63 -47 122 -102 149 -55 26 -140 27 -181 1z m158 -15 c39 -16 82 -61
96 -99 24 -62 9 -116 -59 -222 -21 -33 -41 -75 -45 -93 -9 -43 -31 -36 -27 9
6 62 34 164 49 176 10 8 11 13 2 18 -6 4 -14 2 -18 -4 -8 -12 -35 -129 -46
-193 -4 -29 -11 -38 -25 -38 -16 0 -20 7 -20 31 0 16 -7 61 -16 99 -20 90 -21
83 7 97 17 9 19 13 7 13 -9 0 -20 -5 -23 -10 -5 -8 -12 -7 -23 2 -14 11 -15
10 -8 -7 18 -44 46 -161 46 -192 0 -23 -5 -33 -15 -33 -8 0 -15 9 -15 20 0 25
-20 66 -69 139 -32 49 -36 61 -36 121 0 54 5 73 25 102 48 70 136 97 213 64z"/>
<path d="M4315 5470 c-3 -4 11 -11 30 -14 48 -9 99 -62 112 -117 l11 -44 1 35
c1 40 -27 92 -62 115 -32 21 -85 36 -92 25z"/>
<path d="M4312 5242 c-8 -6 -2 -9 18 -9 20 0 26 3 18 9 -7 4 -15 8 -18 8 -3 0
-11 -4 -18 -8z"/>
<path d="M3600 5456 c0 -9 5 -16 10 -16 6 0 10 4 10 9 0 6 -4 13 -10 16 -5 3
-10 -1 -10 -9z"/>
<path d="M1790 5440 c-19 -19 -20 -33 -20 -279 0 -206 3 -260 13 -264 20 -8
273 -9 313 -1 l34 6 0 279 0 279 -160 0 c-147 0 -162 -2 -180 -20z m310 -30
l0 -30 -155 0 c-143 0 -154 1 -148 18 13 37 33 42 170 42 l133 0 0 -30z m-40
-345 c0 -49 2 -55 20 -55 23 0 19 -14 -22 -63 l-23 -29 -33 46 c-31 42 -32 46
-13 46 19 0 21 6 21 55 0 52 1 55 25 55 24 0 25 -3 25 -55z"/>
<path d="M2630 5444 c0 -9 5 -14 12 -12 18 6 21 28 4 28 -9 0 -16 -7 -16 -16z"/>
<path d="M3646 5453 c-11 -11 -6 -23 9 -23 8 0 15 4 15 9 0 13 -16 22 -24 14z"/>
<path d="M2577 5444 c-8 -8 1 -24 14 -24 5 0 9 7 9 15 0 15 -12 20 -23 9z"/>
<path d="M2520 5425 c0 -8 7 -15 15 -15 8 0 15 7 15 15 0 8 -7 15 -15 15 -8 0
-15 -7 -15 -15z"/>
<path d="M3697 5434 c-8 -8 1 -24 14 -24 5 0 9 7 9 15 0 15 -12 20 -23 9z"/>
<path d="M3750 5415 c0 -9 5 -15 11 -13 6 2 11 8 11 13 0 5 -5 11 -11 13 -6 2
-11 -4 -11 -13z"/>
<path d="M2470 5410 c0 -5 7 -10 15 -10 8 0 15 5 15 10 0 6 -7 10 -15 10 -8 0
-15 -4 -15 -10z"/>
<path d="M2420 5395 c0 -9 5 -15 11 -13 6 2 11 8 11 13 0 5 -5 11 -11 13 -6 2
-11 -4 -11 -13z"/>
<path d="M3802 5399 c2 -6 8 -10 13 -10 5 0 11 4 13 10 2 6 -4 11 -13 11 -9 0
-15 -5 -13 -11z"/>
<path d="M3850 5386 c0 -9 7 -16 16 -16 17 0 14 22 -4 28 -7 2 -12 -3 -12 -12z"/>
<path d="M2375 5380 c3 -5 8 -10 11 -10 2 0 4 5 4 10 0 6 -5 10 -11 10 -5 0
-7 -4 -4 -10z"/>
<path d="M1536 4903 c-11 -11 -6 -23 9 -23 8 0 15 4 15 9 0 13 -16 22 -24 14z"/>
<path d="M4695 4900 c-3 -5 -2 -10 4 -10 5 0 13 5 16 10 3 6 2 10 -4 10 -5 0
-13 -4 -16 -10z"/>
<path d="M4730 4865 c0 -8 5 -15 10 -15 6 0 10 7 10 15 0 8 -4 15 -10 15 -5 0
-10 -7 -10 -15z"/>
<path d="M1490 4855 c0 -8 7 -15 15 -15 8 0 15 7 15 15 0 8 -7 15 -15 15 -8 0
-15 -7 -15 -15z"/>
<path d="M4767 4844 c-8 -8 1 -24 14 -24 5 0 9 7 9 15 0 15 -12 20 -23 9z"/>
<path d="M1452 4818 c6 -18 28 -21 28 -4 0 9 -7 16 -16 16 -9 0 -14 -5 -12
-12z"/>
<path d="M4807 4803 c-12 -11 -8 -23 8 -23 8 0 15 7 15 15 0 16 -12 20 -23 8z"/>
<path d="M1412 4779 c2 -6 8 -10 13 -10 5 0 11 4 13 10 2 6 -4 11 -13 11 -9 0
-15 -5 -13 -11z"/>
<path d="M4840 4755 c0 -8 7 -15 15 -15 8 0 15 7 15 15 0 8 -7 15 -15 15 -8 0
-15 -7 -15 -15z"/>
<path d="M1380 4740 c0 -5 7 -10 15 -10 8 0 15 5 15 10 0 6 -7 10 -15 10 -8 0
-15 -4 -15 -10z"/>
<path d="M4880 4716 c0 -9 7 -16 16 -16 9 0 14 5 12 12 -6 18 -28 21 -28 4z"/>
<path d="M1350 4710 c0 -5 5 -10 11 -10 5 0 7 5 4 10 -3 6 -8 10 -11 10 -2 0
-4 -4 -4 -10z"/>
<path d="M4860 4405 l0 -215 320 0 320 0 0 215 0 215 -320 0 -320 0 0 -215z
m584 189 c14 -5 16 -31 16 -185 l0 -179 -280 0 -280 0 0 180 c0 113 4 180 10
180 6 0 10 -34 10 -81 0 -71 2 -80 15 -69 12 10 18 10 30 0 13 -11 15 -2 15
67 0 44 3 83 7 86 8 9 436 9 457 1z"/>
<path d="M5005 4550 c4 -6 85 -10 211 -10 129 0 204 4 204 10 0 6 -77 10 -211
10 -137 0 -208 -3 -204 -10z"/>
<path d="M5000 4480 c0 -6 77 -10 210 -10 133 0 210 4 210 10 0 6 -77 10 -210
10 -133 0 -210 -4 -210 -10z"/>
<path d="M5000 4410 c0 -6 77 -10 210 -10 133 0 210 4 210 10 0 6 -77 10 -210
10 -133 0 -210 -4 -210 -10z"/>
<path d="M5000 4340 c0 -6 77 -10 210 -10 133 0 210 4 210 10 0 6 -77 10 -210
10 -133 0 -210 -4 -210 -10z"/>
<path d="M5000 4270 c0 -6 77 -10 210 -10 133 0 210 4 210 10 0 6 -77 10 -210
10 -133 0 -210 -4 -210 -10z"/>
<path d="M1253 4558 c3 -47 27 -49 26 -1 l-2 38 -7 -35 -7 -35 -6 33 -7 32 3
-32z"/>
<path d="M830 4245 l0 -235 250 0 250 0 0 235 0 235 -250 0 -250 0 0 -235z
m115 160 c0 -28 -2 -30 -40 -30 -30 0 -41 4 -43 18 -7 36 6 48 45 45 35 -3 38
-6 38 -33z m120 0 c0 -28 -3 -30 -42 -33 -41 -3 -43 -2 -43 26 0 38 7 44 50
40 32 -3 35 -6 35 -33z m120 16 c10 -34 -4 -51 -45 -51 -41 0 -55 17 -45 51 5
14 16 19 45 19 29 0 40 -5 45 -19z m113 -19 l3 -33 -43 3 c-32 2 -44 8 -46 21
-7 36 6 48 45 45 35 -3 38 -6 41 -36z m-367 -52 c17 0 20 -6 17 -42 -3 -43 -3
-43 -43 -43 -39 0 -40 1 -43 39 -3 40 11 60 36 51 8 -3 23 -5 33 -5z m127 -6
c9 -2 12 -17 10 -41 -3 -37 -4 -38 -43 -38 -38 0 -40 2 -43 33 -6 62 5 68 76
46z m121 1 c12 -7 14 -44 5 -69 -4 -11 -19 -16 -44 -16 -40 0 -50 11 -50 55 0
13 7 28 16 33 17 10 56 8 73 -3z m121 -4 c4 -7 4 -27 1 -44 -6 -29 -10 -32
-46 -32 -38 0 -40 2 -43 33 -2 18 1 39 7 46 13 16 70 14 81 -3z m-355 -141 l0
-45 -40 0 c-38 0 -40 2 -43 33 -5 53 3 64 45 60 38 -3 38 -3 38 -48z m109 44
c11 -4 16 -19 16 -45 0 -33 -4 -40 -24 -45 -44 -11 -61 -1 -64 35 -2 18 -1 39
2 47 6 14 42 19 70 8z m124 -6 c7 -7 12 -24 12 -38 0 -33 -17 -50 -50 -50 -33
0 -50 17 -50 50 0 33 17 50 50 50 14 0 31 -5 38 -12z m117 2 c5 -8 8 -103 6
-173 -1 -15 -8 -18 -43 -15 l-43 3 -3 89 c-2 65 1 92 10 98 18 11 66 10 73 -2z
m-347 -147 l3 -43 -45 0 -46 0 0 38 c0 48 6 54 50 50 34 -3 35 -5 38 -45z
m117 2 c0 -40 0 -40 -42 -43 l-43 -3 0 39 c0 48 5 54 50 50 34 -3 35 -4 35
-43z m121 21 c12 -49 2 -61 -46 -61 -48 0 -58 12 -46 61 5 20 12 24 46 24 34
0 41 -4 46 -24z"/>
<path d="M2010 3430 l0 -710 510 0 510 0 0 -90 c0 -87 -1 -90 -22 -90 -13 -1
-170 -1 -349 0 -179 0 -333 -2 -342 -6 -14 -5 -17 -21 -17 -95 l0 -89 830 0
831 0 -3 93 -3 92 -360 2 -360 2 -3 90 -3 91 511 0 510 0 0 710 0 710 -1120 0
-1120 0 0 -710z m2150 5 l0 -615 -1030 0 -1030 0 0 615 0 615 1030 0 1030 0 0
-615z"/>
<path d="M2780 3872 c-6 -2 -10 -17 -10 -33 l0 -29 615 0 615 0 0 30 0 30
-605 2 c-333 2 -610 2 -615 0z"/>
<path d="M2770 3635 l0 -35 615 0 615 0 0 35 0 35 -615 0 -615 0 0 -35z"/>
<path d="M2770 3435 l0 -35 615 0 615 0 0 35 0 35 -615 0 -615 0 0 -35z"/>
<path d="M2770 3230 l0 -30 615 0 615 0 0 30 0 30 -615 0 -615 0 0 -30z"/>
<path d="M2770 3025 l0 -35 615 0 615 0 0 35 0 35 -615 0 -615 0 0 -35z"/>
<path d="M5365 3880 c-3 -5 1 -10 9 -10 9 0 16 5 16 10 0 6 -4 10 -9 10 -6 0
-13 -4 -16 -10z"/>
<path d="M867 3874 c-8 -8 1 -24 14 -24 5 0 9 7 9 15 0 15 -12 20 -23 9z"/>
<path d="M5382 3829 c2 -6 8 -10 13 -10 5 0 11 4 13 10 2 6 -4 11 -13 11 -9 0
-15 -5 -13 -11z"/>
<path d="M850 3815 c0 -9 5 -15 11 -13 6 2 11 8 11 13 0 5 -5 11 -11 13 -6 2
-11 -4 -11 -13z"/>
<path d="M5400 3775 c0 -9 5 -15 11 -13 6 2 11 8 11 13 0 5 -5 11 -11 13 -6 2
-11 -4 -11 -13z"/>
<path d="M836 3773 c-11 -11 -6 -23 9 -23 8 0 15 4 15 9 0 13 -16 22 -24 14z"/>
<path d="M5410 3726 c0 -9 7 -16 16 -16 9 0 14 5 12 12 -6 18 -28 21 -28 4z"/>
<path d="M822 3709 c2 -6 8 -10 13 -10 5 0 11 4 13 10 2 6 -4 11 -13 11 -9 0
-15 -5 -13 -11z"/>
<path d="M5426 3683 c-11 -11 -6 -23 9 -23 8 0 15 4 15 9 0 13 -16 22 -24 14z"/>
<path d="M807 3664 c-8 -8 1 -24 14 -24 5 0 9 7 9 15 0 15 -12 20 -23 9z"/>
<path d="M5432 3618 c6 -18 28 -21 28 -4 0 9 -7 16 -16 16 -9 0 -14 -5 -12
-12z"/>
<path d="M800 3610 c0 -5 5 -10 10 -10 6 0 10 5 10 10 0 6 -4 10 -10 10 -5 0
-10 -4 -10 -10z"/>
<path d="M5240 3457 c0 -2 9 -15 21 -28 11 -13 52 -65 91 -116 61 -80 68 -94
58 -112 -6 -12 -8 -26 -5 -31 3 -5 -17 -31 -44 -58 -55 -55 -76 -110 -68 -177
18 -163 203 -248 330 -151 56 43 84 87 91 144 11 76 -24 157 -85 198 -20 13
-28 28 -31 59 -4 37 1 47 77 145 44 58 84 111 89 118 5 9 -7 12 -52 12 l-60 0
-71 -91 c-53 -66 -75 -88 -84 -80 -7 5 -39 46 -72 90 l-60 80 -62 1 c-35 0
-63 -2 -63 -3z m325 -276 c3 -5 2 -11 -2 -13 -15 -8 -123 4 -123 13 0 12 117
12 125 0z m52 -67 c76 -60 102 -157 64 -239 -61 -132 -230 -154 -328 -42 -78
89 -47 242 59 296 64 33 153 26 205 -15z"/>
<path d="M392 3192 c1 -49 -1 -93 -4 -98 -3 -5 -5 -36 -4 -69 1 -57 2 -60 26
-59 14 0 24 5 23 10 -1 6 -3 33 -4 60 -1 27 -4 53 -7 58 -3 5 -4 48 -3 97 2
73 0 89 -13 89 -12 0 -14 -16 -14 -88z"/>
<path d="M518 3215 c-9 -10 3 -329 13 -341 27 -33 103 -49 229 -49 105 1 132
4 171 22 26 12 49 26 53 31 7 11 10 332 3 338 -3 3 -56 -13 -118 -34 l-114
-39 -110 38 c-119 41 -119 41 -127 34z"/>
<path d="M800 2646 c0 -9 7 -16 16 -16 9 0 14 5 12 12 -6 18 -28 21 -28 4z"/>
<path d="M5440 2650 c0 -5 4 -10 9 -10 6 0 13 5 16 10 3 6 -1 10 -9 10 -9 0
-16 -4 -16 -10z"/>
<path d="M5430 2605 c0 -9 5 -15 11 -13 6 2 11 8 11 13 0 5 -5 11 -11 13 -6 2
-11 -4 -11 -13z"/>
<path d="M812 2589 c2 -6 8 -10 13 -10 5 0 11 4 13 10 2 6 -4 11 -13 11 -9 0
-15 -5 -13 -11z"/>
<path d="M5416 2563 c-11 -11 -6 -23 9 -23 8 0 15 4 15 9 0 13 -16 22 -24 14z"/>
<path d="M822 2538 c6 -18 28 -21 28 -4 0 9 -7 16 -16 16 -9 0 -14 -5 -12 -12z"/>
<path d="M5402 2499 c2 -6 8 -10 13 -10 5 0 11 4 13 10 2 6 -4 11 -13 11 -9 0
-15 -5 -13 -11z"/>
<path d="M840 2485 c0 -8 5 -15 10 -15 6 0 10 7 10 15 0 8 -4 15 -10 15 -5 0
-10 -7 -10 -15z"/>
<path d="M5387 2454 c-8 -8 1 -24 14 -24 5 0 9 7 9 15 0 15 -12 20 -23 9z"/>
<path d="M856 2443 c-11 -11 -6 -23 9 -23 8 0 15 4 15 9 0 13 -16 22 -24 14z"/>
<path d="M5370 2395 c0 -9 5 -15 11 -13 6 2 11 8 11 13 0 5 -5 11 -11 13 -6 2
-11 -4 -11 -13z"/>
<path d="M870 2380 c0 -5 7 -7 15 -4 8 4 15 8 15 10 0 2 -7 4 -15 4 -8 0 -15
-4 -15 -10z"/>
<path d="M5076 2290 c-60 -23 -118 -78 -145 -136 -27 -56 -43 -252 -18 -219 8
11 18 44 22 73 4 28 10 52 15 52 4 0 10 12 13 28 8 39 54 104 90 129 74 51
190 50 268 -2 43 -28 108 -149 116 -217 3 -24 10 -49 16 -55 17 -22 29 -14 23
15 -3 15 -8 55 -11 90 -15 194 -206 313 -389 242z"/>
<path d="M1214 2213 c-122 -132 -256 -266 -383 -385 l-114 -107 14 -33 c20
-48 72 -102 119 -123 40 -18 41 -18 59 1 131 142 181 190 185 179 3 -10 15
-11 41 -5 20 5 39 10 41 13 3 2 0 23 -5 47 -9 40 -8 42 12 36 65 -18 62 -19
76 20 12 32 11 38 -2 46 -13 7 7 30 96 115 124 119 127 127 83 193 -26 39 -74
74 -116 85 -22 5 -36 -6 -106 -82z m146 39 c0 -4 -53 -59 -117 -124 -94 -94
-113 -118 -100 -124 20 -7 49 -57 45 -75 -3 -11 25 -31 56 -42 5 -2 4 -13 -3
-25 -11 -21 -13 -21 -47 -7 -42 17 -50 7 -40 -55 6 -38 5 -40 -19 -40 -21 0
-26 6 -31 38 -4 29 -11 38 -27 39 -11 1 -32 14 -46 28 l-26 25 -116 -116
c-111 -111 -117 -116 -129 -95 -6 12 -10 27 -8 34 2 7 72 76 155 155 84 79
208 203 275 276 118 127 124 133 150 124 16 -6 28 -13 28 -16z"/>
<path d="M3704 2036 c-17 -13 -19 -27 -19 -146 0 -119 2 -133 20 -146 11 -8
26 -11 35 -8 8 4 23 6 33 6 15 -1 17 9 17 74 0 72 -1 74 -25 74 -14 0 -25 -4
-25 -10 0 -5 5 -10 11 -10 6 0 9 -21 7 -52 -3 -45 -6 -53 -23 -53 -19 0 -20 8
-23 121 -2 97 0 123 12 133 23 20 36 4 36 -45 0 -32 4 -44 15 -44 20 0 20 68
-1 98 -17 25 -42 28 -70 8z"/>
<path d="M2470 1890 l0 -150 40 0 c22 0 40 5 40 10 0 6 -11 10 -25 10 -24 0
-25 3 -25 60 0 57 1 60 25 60 14 0 25 5 25 10 0 6 -11 10 -25 10 -24 0 -25 3
-25 60 0 57 1 60 24 60 14 0 28 5 31 10 4 6 -12 10 -39 10 l-46 0 0 -150z"/>
<path d="M2720 1890 l0 -150 40 0 c22 0 40 5 40 10 0 6 -13 10 -30 10 l-30 0
0 140 c0 87 -4 140 -10 140 -6 0 -10 -57 -10 -150z"/>
<path d="M2830 1890 l0 -150 40 0 c22 0 40 5 40 10 0 6 -11 10 -25 10 -24 0
-25 3 -25 60 0 57 1 60 25 60 14 0 25 5 25 10 0 6 -11 10 -25 10 -24 0 -25 3
-25 60 0 57 1 60 25 60 14 0 25 5 25 10 0 6 -18 10 -40 10 l-40 0 0 -150z"/>
<path d="M2962 1903 c-12 -76 -22 -144 -22 -150 0 -25 19 -12 25 17 5 25 12
30 35 30 23 0 30 -5 35 -30 7 -31 25 -42 25 -15 0 18 -39 242 -46 268 -3 9
-11 17 -18 17 -8 0 -20 -48 -34 -137z m55 -15 l9 -68 -26 0 -26 0 10 75 c5 42
13 72 17 68 3 -4 11 -38 16 -75z"/>
<path d="M3100 1890 c0 -127 2 -150 15 -150 12 0 15 15 15 76 0 72 1 75 23 72
20 -3 22 -10 27 -72 3 -43 10 -71 18 -74 16 -5 17 110 1 140 -8 14 -8 23 0 31
15 15 14 100 -1 115 -7 7 -31 12 -55 12 l-43 0 0 -150z m80 75 c0 -52 -1 -55
-25 -55 -24 0 -25 3 -25 55 0 52 1 55 25 55 24 0 25 -3 25 -55z"/>
<path d="M3260 1890 c0 -131 2 -150 16 -150 14 0 16 12 10 105 -3 58 -4 105
-2 105 3 0 19 -47 37 -105 18 -58 36 -105 41 -105 4 0 8 68 8 150 0 93 -4 150
-10 150 -6 0 -10 -41 -11 -102 l-1 -103 -35 103 c-19 56 -39 102 -44 102 -5 0
-9 -66 -9 -150z"/>
<path d="M3430 1890 c0 -127 2 -150 15 -150 13 0 15 23 15 150 0 127 -2 150
-15 150 -13 0 -15 -23 -15 -150z"/>
<path d="M3520 1890 c0 -93 4 -150 10 -150 6 0 10 43 11 108 l1 107 35 -107
c18 -60 38 -108 43 -108 6 0 10 62 10 150 0 93 -4 150 -10 150 -6 0 -10 -43
-11 -107 l-1 -108 -36 108 c-20 59 -40 107 -44 107 -4 0 -8 -67 -8 -150z"/>
<path d="M2608 1893 c12 -2 32 -2 45 0 12 2 2 4 -23 4 -25 0 -35 -2 -22 -4z"/>
<path d="M4854 1877 c-3 -8 -4 -49 -2 -93 3 -71 5 -79 23 -79 18 0 20 8 23 93
3 87 2 92 -18 92 -11 0 -23 -6 -26 -13z"/>
<path d="M5480 1800 c0 -83 1 -90 20 -90 19 0 20 7 20 90 0 83 -1 90 -20 90
-19 0 -20 -7 -20 -90z"/>
<path d="M4890 1561 c0 -5 5 -13 10 -16 6 -3 10 -2 10 4 0 5 -4 13 -10 16 -5
3 -10 2 -10 -4z"/>
<path d="M1352 1548 c6 -18 28 -21 28 -4 0 9 -7 16 -16 16 -9 0 -14 -5 -12
-12z"/>
<path d="M4850 1520 c0 -5 7 -10 15 -10 8 0 15 5 15 10 0 6 -7 10 -15 10 -8 0
-15 -4 -15 -10z"/>
<path d="M1390 1505 c0 -8 7 -15 15 -15 8 0 15 7 15 15 0 8 -7 15 -15 15 -8 0
-15 -7 -15 -15z"/>
<path d="M4826 1493 c-11 -11 -6 -23 9 -23 8 0 15 4 15 9 0 13 -16 22 -24 14z"/>
<path d="M1430 1464 c0 -9 5 -14 12 -12 18 6 21 28 4 28 -9 0 -16 -7 -16 -16z"/>
<path d="M4780 1446 c0 -9 7 -16 16 -16 17 0 14 22 -4 28 -7 2 -12 -3 -12 -12z"/>
<path d="M1472 1431 c4 -13 18 -16 19 -4 0 4 -5 9 -11 12 -7 2 -11 -2 -8 -8z"/>
<path d="M4740 1405 c0 -8 7 -15 15 -15 8 0 15 7 15 15 0 8 -7 15 -15 15 -8 0
-15 -7 -15 -15z"/>
<path d="M1510 1395 c0 -8 5 -15 10 -15 6 0 10 7 10 15 0 8 -4 15 -10 15 -5 0
-10 -7 -10 -15z"/>
<path d="M4702 1369 c2 -6 8 -10 13 -10 5 0 11 4 13 10 2 6 -4 11 -13 11 -9 0
-15 -5 -13 -11z"/>
<path d="M1545 1361 c-6 -11 9 -23 19 -14 9 9 7 23 -3 23 -6 0 -12 -4 -16 -9z"/>
<path d="M1672 1330 c-54 -11 -62 -17 -62 -41 0 -10 -4 -19 -10 -19 -6 0 -10
-86 -10 -239 l0 -240 58 20 c72 25 207 23 263 -4 32 -16 38 -16 72 -2 20 8 37
11 37 6 0 -5 12 -23 26 -40 25 -30 29 -31 100 -31 l75 0 15 35 c16 40 14 38
48 25 l26 -10 0 229 c0 126 -3 242 -6 259 -8 39 -52 57 -144 56 -71 -1 -132
-25 -182 -72 l-27 -25 -26 26 c-57 56 -165 85 -253 67z m168 -31 c25 -11 60
-34 78 -52 l32 -31 0 -178 c0 -118 -4 -178 -10 -178 -6 0 -24 7 -40 15 -71 36
-152 39 -257 9 l-23 -6 0 211 0 210 33 10 c57 16 139 12 187 -10z m403 10 l37
-10 0 -209 c0 -209 -7 -250 -31 -180 -11 30 -28 40 -30 18 -1 -7 -5 5 -8 27
-4 27 -12 41 -23 43 -15 3 -18 -4 -20 -40 -1 -38 -2 -36 -7 17 -5 45 -10 61
-23 63 -14 3 -18 -7 -21 -60 -2 -45 -4 -34 -5 39 -2 102 -2 103 23 109 14 3
41 4 60 2 19 -2 35 0 35 5 0 6 -28 8 -65 5 -38 -4 -68 -2 -71 4 -4 6 -15 1
-28 -11 -11 -11 -34 -32 -51 -46 l-30 -26 38 22 37 21 -1 -99 c-1 -83 -2 -93
-11 -63 -9 33 -11 34 -24 15 -8 -10 -14 -31 -14 -47 0 -24 -22 -48 -45 -48 -3
0 -4 84 -3 186 l3 187 36 29 c66 53 156 71 242 47z m-428 -420 c33 -6 77 -20
99 -31 31 -16 44 -18 58 -9 10 6 22 11 28 11 19 0 10 -15 -18 -31 -27 -15 -31
-15 -65 3 -58 29 -131 39 -203 28 -34 -6 -70 -13 -78 -16 -24 -9 -19 14 5 27
12 6 42 15 68 19 25 4 46 8 47 9 0 0 27 -4 59 -10z m465 -29 c8 -5 11 -12 8
-16 -10 -9 -38 3 -38 16 0 12 10 13 30 0z"/>
<path d="M2081 1249 c-38 -15 -93 -51 -87 -56 3 -3 17 4 33 14 41 29 61 35
138 43 l70 7 -65 1 c-36 0 -76 -4 -89 -9z"/>
<path d="M2085 1187 c-52 -21 -95 -47 -95 -59 0 -7 7 -5 18 4 35 31 87 51 156
58 l71 7 -60 1 c-33 0 -73 -5 -90 -11z"/>
<path d="M4134 1221 c-108 -49 -106 -249 4 -365 38 -40 129 -89 145 -79 5 3
35 6 66 7 47 1 64 7 103 35 72 52 107 114 123 217 21 134 -95 239 -206 189
-21 -10 -39 -22 -39 -27 0 -14 -20 -9 -41 11 -37 34 -96 39 -155 12z m365 -45
c28 -25 51 -76 50 -108 0 -13 -6 -2 -13 25 -15 54 -37 83 -81 103 -24 11 -25
13 -5 8 14 -4 36 -16 49 -28z"/>
<path d="M3234 1081 l-6 -28 -68 5 c-120 8 -217 -45 -261 -143 -48 -108 -30
-206 55 -290 l52 -53 -19 -23 c-17 -21 -17 -24 -2 -35 9 -7 39 -18 66 -24 42
-10 49 -16 49 -36 0 -20 -5 -24 -30 -24 -20 0 -30 -5 -30 -15 0 -9 -9 -15 -25
-15 -18 0 -25 -5 -25 -20 0 -19 7 -20 146 -20 133 0 145 1 142 17 -2 10 -14
19 -26 21 -13 2 -26 10 -29 18 -3 8 -18 14 -34 14 -24 0 -29 4 -29 24 0 20 7
25 48 35 175 44 282 220 238 392 -25 97 -79 169 -158 210 -47 24 -47 24 -54
-10z m95 -83 c77 -77 101 -215 53 -308 -54 -102 -142 -160 -247 -160 -63 0
-105 8 -105 19 0 4 39 6 88 6 97 0 136 14 191 67 64 63 94 163 72 244 -15 54
-63 125 -100 147 -17 10 -29 23 -26 28 8 12 34 -2 74 -43z m-104 18 c91 -43
135 -112 135 -211 0 -135 -94 -229 -231 -230 -56 0 -73 4 -115 30 -27 17 -62
51 -79 75 -27 41 -30 52 -30 127 0 74 3 85 30 124 72 101 185 135 290 85z"/>
<path d="M3870 885 c0 -8 4 -15 10 -15 5 0 7 7 4 15 -4 8 -8 15 -10 15 -2 0
-4 -7 -4 -15z"/>
<path d="M2382 879 c2 -6 8 -10 13 -10 5 0 11 4 13 10 2 6 -4 11 -13 11 -9 0
-15 -5 -13 -11z"/>
<path d="M2436 873 c-11 -11 -6 -23 9 -23 8 0 15 4 15 9 0 13 -16 22 -24 14z"/>
<path d="M3817 874 c-8 -8 1 -24 14 -24 5 0 9 7 9 15 0 15 -12 20 -23 9z"/>
<path d="M2487 854 c-8 -8 1 -24 14 -24 5 0 9 7 9 15 0 15 -12 20 -23 9z"/>
<path d="M3760 850 c0 -5 7 -10 15 -10 8 0 15 5 15 10 0 6 -7 10 -15 10 -8 0
-15 -4 -15 -10z"/>
<path d="M2540 835 c0 -9 5 -15 11 -13 6 2 11 8 11 13 0 5 -5 11 -11 13 -6 2
-11 -4 -11 -13z"/>
<path d="M3710 834 c0 -9 5 -14 12 -12 18 6 21 28 4 28 -9 0 -16 -7 -16 -16z"/>
<path d="M3660 825 c0 -9 5 -15 11 -13 6 2 11 8 11 13 0 5 -5 11 -11 13 -6 2
-11 -4 -11 -13z"/>
<path d="M2592 819 c2 -6 8 -10 13 -10 5 0 11 4 13 10 2 6 -4 11 -13 11 -9 0
-15 -5 -13 -11z"/>
<path d="M3607 823 c-12 -11 -8 -23 8 -23 8 0 15 7 15 15 0 16 -12 20 -23 8z"/>
<path d="M2640 811 c0 -6 5 -13 10 -16 6 -3 10 1 10 9 0 9 -4 16 -10 16 -5 0
-10 -4 -10 -9z"/>
</g>
</svg>
