<?xml version="1.0" standalone="no"?>
<!DOCTYPE svg PUBLIC "-//W3C//DTD SVG 20010904//EN"
 "http://www.w3.org/TR/2001/REC-SVG-20010904/DTD/svg10.dtd">
<svg version="1.0" xmlns="http://www.w3.org/2000/svg"
 width="126.000000pt" height="126.000000pt" viewBox="0 0 126.000000 126.000000"
 preserveAspectRatio="xMidYMid meet">
<metadata>
Created by potrace 1.11, written by Peter Selinger 2001-2013
</metadata>
<g transform="translate(0.000000,126.000000) scale(0.100000,-0.100000)"
fill="#000000" stroke="none">
<path d="M513 1236 c-227 -56 -383 -259 -381 -496 1 -46 6 -98 11 -115 34
-106 79 -181 146 -240 18 -16 41 -37 50 -45 9 -8 35 -24 58 -35 23 -11 39 -23
37 -27 -3 -5 3 -7 13 -6 41 3 55 -2 49 -18 -5 -14 -4 -15 8 -5 8 7 23 10 33 7
29 -9 137 -11 151 -2 7 4 12 2 12 -6 0 -10 2 -10 8 -1 4 7 21 14 38 17 16 2
45 10 63 19 19 8 42 12 50 9 9 -3 13 -2 9 3 -10 10 61 57 74 49 6 -4 8 -3 5 3
-7 11 73 89 86 85 5 -1 6 2 2 7 -10 16 26 63 43 56 12 -4 12 -3 3 9 -8 10 -9
16 -1 21 5 3 10 15 10 26 0 13 4 18 12 13 6 -4 8 -3 4 4 -3 6 0 30 9 54 21 63
15 216 -13 293 -56 155 -191 278 -350 319 -63 17 -175 18 -239 2z"/>
<path d="M215 420 c-3 -5 -1 -10 4 -10 6 0 11 5 11 10 0 6 -2 10 -4 10 -3 0
-8 -4 -11 -10z"/>
<path d="M307 339 c7 -7 15 -10 18 -7 3 3 -2 9 -12 12 -14 6 -15 5 -6 -5z"/>
<path d="M976 322 c-3 -5 1 -9 9 -9 8 0 12 4 9 9 -3 4 -7 8 -9 8 -2 0 -6 -4
-9 -8z"/>
<path d="M813 265 c0 -7 5 -13 11 -12 6 1 10 -5 8 -13 -2 -8 0 -11 4 -7 4 4 9
15 10 23 1 9 0 13 -3 10 -4 -3 -11 -1 -18 4 -8 7 -12 5 -12 -5z"/>
<path d="M869 263 c-13 -16 -12 -17 4 -4 9 7 17 15 17 17 0 8 -8 3 -21 -13z"/>
<path d="M396 258 c3 -5 10 -6 15 -3 13 9 11 12 -6 12 -8 0 -12 -4 -9 -9z"/>
<path d="M696 222 c-3 -4 4 -9 15 -9 23 -2 25 3 4 10 -8 4 -16 3 -19 -1z"/>
<path d="M787 219 c7 -7 15 -10 18 -7 3 3 -2 9 -12 12 -14 6 -15 5 -6 -5z"/>
<path d="M556 167 c3 -10 9 -15 12 -12 3 3 0 11 -7 18 -10 9 -11 8 -5 -6z"/>
</g>
</svg>
